<svg aria-hidden="true" style="position: absolute; width: 0; height: 0; overflow: hidden;" version="1.1" xmlns="http://www.w3.org/2000/svg" xmlns:xlink="http://www.w3.org/1999/xlink">
<defs>
<symbol id="icon-logo1" viewBox="0 0 36 32">
<path d="M22.989 12.595l6.609 0.019-10.816 18.558-11.586-0-7.197-12.349c2.334 0.18 5.083 0.622 6.667 1.764 1.629 1.174 2.959 3.413 3.962 5.121l2.302 3.901 3.753-6.197 6.304-10.816z"></path>
<path d="M13.222 18.578l-6.609-0.019 10.815-18.558 11.586 0 7.196 12.349c-2.335-0.18-5.083-0.622-6.668-1.764-1.629-1.174-2.959-3.413-3.962-5.121l-2.303-3.901-3.753 6.197-6.304 10.817z"></path>
</symbol>
<symbol id="icon-logo2" viewBox="0 0 38 32">
<path d="M16.744 11.154v15.725h8.081c4.109 0 6.547-1.874 6.547-5.302v-0.092c0-3.246-2.529-5.348-6.502-5.348h-4.642l11.234-16.137h6.591l-8.533 12.115c4.379 1.279 7.495 4.434 7.495 9.69v0.092c0 2.788-0.948 5.165-2.619 6.902-2.032 2.012-5.147 3.201-9.12 3.201h-14.085v-24.053h5.552l-0 3.207zM0 0h27.281l-3.566 5.12h-18.163v26.88h-5.553v-32z"></path>
</symbol>
<symbol id="icon-logo3" viewBox="0 0 28 32">
<path d="M2.002 25.158l19.831-11.466v-9.071l-7.994-4.621-13.837 8-0.001 4.536 13.838-8 2.070 1.197-15.908 9.197 0.001 4.535 17.909-10.353 0.001 2.314-17.91 10.354 0 2.221 2.002 1.157zM23.753 21.732l-9.914 5.732-2.071-1.197 11.985-6.928v2.393zM23.753 14.803l-19.831 11.465 9.916 5.732 13.838-8c0-5.333 0-10.665 0-16l-3.923-2.268 0 9.071z"></path>
</symbol>
<symbol id="icon-logo4" viewBox="0 0 40 32">
<path d="M19.893 19.756l12.031 12.243-12.031-6.122-12.031 6.122 12.031-12.243zM19.891 0l19.893 32-19.892-20.244-19.892 20.244 19.891-31.999z"></path>
</symbol>
</defs>
</svg>
